<svg width="41" height="40" viewBox="0 0 41 40" fill="none" xmlns="http://www.w3.org/2000/svg">
    <path d="M32.782 15.7292C32.782 8.88318 27.2517 3.33337 20.4297 3.33337C13.6077 3.33337 8.07743 8.88318 8.07743 15.7292V25.573L5.695 30.2282C5.23284 30.8079 5.64414 31.6667 6.38396 31.6667H34.616C35.3559 31.6667 35.7672 30.8079 35.305 30.2282L32.782 25.573V15.7292Z" stroke="#E6E7E9" stroke-width="2.4" stroke-linejoin="round"/>
    <mask id="mask0_20_1075" style="mask-type:alpha" maskUnits="userSpaceOnUse" x="14" y="31" width="13" height="8">
        <path d="M14.75 31.8334H26.25V37.8334H14.75V31.8334Z" fill="white" stroke="#05141F"/>
    </mask>
    <g mask="url(#mask0_20_1075)">
        <path d="M25.55 32.5001C25.55 34.9824 23.3684 37.1334 20.5 37.1334C17.6316 37.1334 15.45 34.9824 15.45 32.5001C15.45 30.0178 17.6316 27.8667 20.5 27.8667C23.3684 27.8667 25.55 30.0178 25.55 32.5001Z" stroke="#E6E7E9" stroke-width="2.4"/>
    </g>
</svg>
