<svg width="24" height="24" viewBox="0 0 24 24" fill="none" xmlns="http://www.w3.org/2000/svg">
    <path fill-rule="evenodd" clip-rule="evenodd" d="M22.4268 20.9376H1.57259C1.12961 20.9376 0.770508 20.5785 0.770508 20.1355V6.50008C0.770508 6.0571 1.12961 5.698 1.57259 5.698H6.75405L8.12561 3.65269C8.27318 3.4286 8.52303 3.29314 8.79134 3.29175H15.208C15.4763 3.29314 15.7262 3.4286 15.8737 3.65269L17.2453 5.698H22.4268C22.8697 5.698 23.2288 6.0571 23.2288 6.50008V20.1355C23.2288 20.5785 22.8697 20.9376 22.4268 20.9376ZM7.18717 12.9167C7.18717 15.5746 9.3418 17.7292 11.9997 17.7292C14.6575 17.7292 16.8122 15.5746 16.8122 12.9167C16.8122 10.2589 14.6575 8.10425 11.9997 8.10425C9.3418 8.10425 7.18717 10.2589 7.18717 12.9167ZM8.79134 12.9167C8.79134 11.1448 10.2278 9.70841 11.9997 9.70841C13.7716 9.70841 15.208 11.1448 15.208 12.9167C15.208 14.6887 13.7716 16.1251 11.9997 16.1251C10.2278 16.1251 8.79134 14.6887 8.79134 12.9167ZM21.6247 19.3334H2.37467V7.30216H7.18717C7.45549 7.30078 7.70533 7.16532 7.8529 6.94123L9.22447 4.89591H14.7749L16.1464 6.94123C16.294 7.16532 16.5439 7.30078 16.8122 7.30216H21.6247V19.3334Z" fill="#9BA1A5"/>
</svg>
