<svg width="20" height="20" viewBox="0 0 20 20" fill="none" xmlns="http://www.w3.org/2000/svg">
    <mask id="path-1-outside-1_105_2091" maskUnits="userSpaceOnUse" x="0.25" y="0.249756" width="19" height="19" fill="black">
        <rect fill="white" x="0.25" y="0.249756" width="19" height="19"/>
        <path fill-rule="evenodd" clip-rule="evenodd" d="M13.125 1.24983C10.0184 1.24983 7.5 3.76823 7.5 6.87483C7.49946 7.42769 7.58161 7.97753 7.74375 8.50608L1.25 14.9998V18.7498H5L11.4937 12.2561C13.1224 12.7558 14.8898 12.4905 16.2999 11.5346C17.7101 10.5787 18.611 9.03525 18.75 7.33733C18.8762 6.0033 18.5093 4.66926 17.7188 3.58733C16.6556 2.11118 14.9441 1.24033 13.125 1.24983ZM15 8.74963C15.6904 8.74963 16.25 8.18999 16.25 7.49963C16.25 6.80928 15.6904 6.24963 15 6.24963C14.3096 6.24963 13.75 6.80928 13.75 7.49963C13.75 8.18999 14.3096 8.74963 15 8.74963ZM11.875 11.0623C12.2804 11.185 12.7015 11.2481 13.125 11.2498C14.6216 11.251 16.0149 10.4871 16.8188 9.22479C17.3048 8.48462 17.5434 7.60923 17.5 6.72479C17.4562 5.21773 16.6395 3.83943 15.3386 3.07722C14.0378 2.31501 12.4361 2.2763 11.1 2.97479C9.21791 3.99564 8.32613 6.20936 8.975 8.24979L9.15625 8.84354L8.625 9.37479L2.5 15.5185V17.4998H4.48125L5.8625 16.1185L5 15.256L5.88125 14.3748L6.74375 15.2373L7.7375 14.2435L6.875 13.381L7.75625 12.4998L8.6375 13.3623L10.625 11.3748L11.1562 10.8435L11.875 11.0623Z"/>
    </mask>
    <path fill-rule="evenodd" clip-rule="evenodd" d="M13.125 1.24983C10.0184 1.24983 7.5 3.76823 7.5 6.87483C7.49946 7.42769 7.58161 7.97753 7.74375 8.50608L1.25 14.9998V18.7498H5L11.4937 12.2561C13.1224 12.7558 14.8898 12.4905 16.2999 11.5346C17.7101 10.5787 18.611 9.03525 18.75 7.33733C18.8762 6.0033 18.5093 4.66926 17.7188 3.58733C16.6556 2.11118 14.9441 1.24033 13.125 1.24983ZM15 8.74963C15.6904 8.74963 16.25 8.18999 16.25 7.49963C16.25 6.80928 15.6904 6.24963 15 6.24963C14.3096 6.24963 13.75 6.80928 13.75 7.49963C13.75 8.18999 14.3096 8.74963 15 8.74963ZM11.875 11.0623C12.2804 11.185 12.7015 11.2481 13.125 11.2498C14.6216 11.251 16.0149 10.4871 16.8188 9.22479C17.3048 8.48462 17.5434 7.60923 17.5 6.72479C17.4562 5.21773 16.6395 3.83943 15.3386 3.07722C14.0378 2.31501 12.4361 2.2763 11.1 2.97479C9.21791 3.99564 8.32613 6.20936 8.975 8.24979L9.15625 8.84354L8.625 9.37479L2.5 15.5185V17.4998H4.48125L5.8625 16.1185L5 15.256L5.88125 14.3748L6.74375 15.2373L7.7375 14.2435L6.875 13.381L7.75625 12.4998L8.6375 13.3623L10.625 11.3748L11.1562 10.8435L11.875 11.0623Z" fill="#05141F"/>
    <path d="M7.5 6.87483L7.6 6.87493V6.87483H7.5ZM13.125 1.24983V1.34983L13.1255 1.34983L13.125 1.24983ZM7.74375 8.50608L7.81446 8.57679L7.85699 8.53426L7.83935 8.47676L7.74375 8.50608ZM1.25 14.9998L1.17929 14.9291L1.15 14.9584V14.9998H1.25ZM1.25 18.7498H1.15V18.8498H1.25V18.7498ZM5 18.7498V18.8498H5.04142L5.07071 18.8205L5 18.7498ZM11.4937 12.2561L11.5231 12.1605L11.4656 12.1428L11.423 12.1854L11.4937 12.2561ZM16.2999 11.5346L16.356 11.6174L16.2999 11.5346ZM18.75 7.33733L18.6504 7.32791L18.6503 7.32918L18.75 7.33733ZM17.7188 3.58733L17.6376 3.64578L17.638 3.64633L17.7188 3.58733ZM13.125 11.2498L13.1246 11.3498L13.1249 11.3498L13.125 11.2498ZM11.875 11.0623L11.8459 11.158L11.846 11.158L11.875 11.0623ZM16.8188 9.22479L16.7352 9.16989L16.7344 9.17107L16.8188 9.22479ZM17.5 6.72479L17.4 6.72769L17.4001 6.72969L17.5 6.72479ZM15.3386 3.07722L15.2881 3.1635L15.3386 3.07722ZM11.1 2.97479L11.0537 2.88616L11.0523 2.88689L11.1 2.97479ZM8.975 8.24979L9.07065 8.22059L9.0703 8.21948L8.975 8.24979ZM9.15625 8.84354L9.22696 8.91425L9.26943 8.87178L9.25189 8.81434L9.15625 8.84354ZM8.625 9.37479L8.55429 9.30408L8.55418 9.30418L8.625 9.37479ZM2.5 15.5185L2.42918 15.4479L2.4 15.4772V15.5185H2.5ZM2.5 17.4998H2.4V17.5998H2.5V17.4998ZM4.48125 17.4998V17.5998H4.52267L4.55196 17.5705L4.48125 17.4998ZM5.8625 16.1185L5.93321 16.1892L6.00392 16.1185L5.93321 16.0478L5.8625 16.1185ZM5 15.256L4.92929 15.1853L4.85858 15.256L4.92929 15.3267L5 15.256ZM5.88125 14.3748L5.95196 14.3041L5.88125 14.2334L5.81054 14.3041L5.88125 14.3748ZM6.74375 15.2373L6.67304 15.308L6.74375 15.3787L6.81446 15.308L6.74375 15.2373ZM7.7375 14.2435L7.80821 14.3142L7.87892 14.2435L7.80821 14.1728L7.7375 14.2435ZM6.875 13.381L6.80429 13.3103L6.73358 13.381L6.80429 13.4517L6.875 13.381ZM7.75625 12.4998L7.8262 12.4283L7.75549 12.3591L7.68554 12.4291L7.75625 12.4998ZM8.6375 13.3623L8.56755 13.4338L8.63826 13.503L8.70821 13.433L8.6375 13.3623ZM11.1562 10.8435L11.1854 10.7479L11.128 10.7304L11.0855 10.7728L11.1562 10.8435ZM7.6 6.87483C7.6 3.82346 10.0736 1.34983 13.125 1.34983V1.14983C9.96317 1.14983 7.4 3.713 7.4 6.87483H7.6ZM7.83935 8.47676C7.68014 7.95774 7.59947 7.41782 7.6 6.87493L7.4 6.87473C7.39945 7.43757 7.48309 7.99732 7.64815 8.53541L7.83935 8.47676ZM1.32071 15.0705L7.81446 8.57679L7.67304 8.43537L1.17929 14.9291L1.32071 15.0705ZM1.35 18.7498V14.9998H1.15V18.7498H1.35ZM5 18.6498H1.25V18.8498H5V18.6498ZM11.423 12.1854L4.92929 18.6791L5.07071 18.8205L11.5645 12.3268L11.423 12.1854ZM16.2438 11.4518C14.8587 12.3907 13.1228 12.6513 11.5231 12.1605L11.4644 12.3517C13.122 12.8603 14.9208 12.5903 16.356 11.6174L16.2438 11.4518ZM18.6503 7.32918C18.5138 8.99691 17.6289 10.5129 16.2438 11.4518L16.356 11.6174C17.7913 10.6445 18.7082 9.07359 18.8497 7.34549L18.6503 7.32918ZM17.638 3.64633C18.4142 4.70852 18.7743 6.01822 18.6504 7.32792L18.8496 7.34675C18.978 5.98838 18.6045 4.63 17.7995 3.52833L17.638 3.64633ZM13.1255 1.34983C14.9123 1.3405 16.5933 2.19587 17.6376 3.64578L17.7999 3.52889C16.7178 2.02649 14.976 1.14016 13.1245 1.14983L13.1255 1.34983ZM16.15 7.49963C16.15 8.13476 15.6351 8.64963 15 8.64963V8.84963C15.7456 8.84963 16.35 8.24522 16.35 7.49963H16.15ZM15 6.34963C15.6351 6.34963 16.15 6.86451 16.15 7.49963H16.35C16.35 6.75405 15.7456 6.14963 15 6.14963V6.34963ZM13.85 7.49963C13.85 6.86451 14.3649 6.34963 15 6.34963V6.14963C14.2544 6.14963 13.65 6.75405 13.65 7.49963H13.85ZM15 8.64963C14.3649 8.64963 13.85 8.13476 13.85 7.49963H13.65C13.65 8.24522 14.2544 8.84963 15 8.84963V8.64963ZM13.1254 11.1498C12.7115 11.1482 12.3001 11.0864 11.904 10.9666L11.846 11.158C12.2607 11.2835 12.6914 11.3481 13.1246 11.3498L13.1254 11.1498ZM16.7344 9.17107C15.9489 10.4046 14.5874 11.1509 13.1251 11.1498L13.1249 11.3498C14.6557 11.351 16.0809 10.5697 16.9031 9.2785L16.7344 9.17107ZM17.4001 6.72969C17.4425 7.59298 17.2096 8.44743 16.7352 9.1699L16.9023 9.27968C17.4 8.52181 17.6443 7.62549 17.5999 6.71989L17.4001 6.72969ZM15.2881 3.1635C16.5592 3.90829 17.3572 5.25508 17.4 6.72769L17.6 6.72188C17.5551 5.18038 16.7197 3.77057 15.3892 2.99094L15.2881 3.1635ZM11.1463 3.06341C12.4519 2.38089 14.017 2.41871 15.2881 3.1635L15.3892 2.99094C14.0586 2.21131 12.4204 2.17172 11.0537 2.88617L11.1463 3.06341ZM9.0703 8.21948C8.43597 6.22478 9.30777 4.06066 11.1477 3.06269L11.0523 2.88689C9.12806 3.93061 8.21629 6.19394 8.8797 8.28009L9.0703 8.21948ZM9.25189 8.81434L9.07064 8.22059L8.87936 8.27898L9.06061 8.87273L9.25189 8.81434ZM8.69571 9.4455L9.22696 8.91425L9.08554 8.77283L8.55429 9.30408L8.69571 9.4455ZM2.57082 15.5891L8.69582 9.44539L8.55418 9.30418L2.42918 15.4479L2.57082 15.5891ZM2.6 17.4998V15.5185H2.4V17.4998H2.6ZM4.48125 17.3998H2.5V17.5998H4.48125V17.3998ZM5.79179 16.0478L4.41054 17.4291L4.55196 17.5705L5.93321 16.1892L5.79179 16.0478ZM4.92929 15.3267L5.79179 16.1892L5.93321 16.0478L5.07071 15.1853L4.92929 15.3267ZM5.81054 14.3041L4.92929 15.1853L5.07071 15.3267L5.95196 14.4455L5.81054 14.3041ZM6.81446 15.1666L5.95196 14.3041L5.81054 14.4455L6.67304 15.308L6.81446 15.1666ZM7.66679 14.1728L6.67304 15.1666L6.81446 15.308L7.80821 14.3142L7.66679 14.1728ZM6.80429 13.4517L7.66679 14.3142L7.80821 14.1728L6.94571 13.3103L6.80429 13.4517ZM7.68554 12.4291L6.80429 13.3103L6.94571 13.4517L7.82696 12.5705L7.68554 12.4291ZM8.70745 13.2908L7.8262 12.4283L7.6863 12.5713L8.56755 13.4338L8.70745 13.2908ZM10.5543 11.3041L8.56679 13.2916L8.70821 13.433L10.6957 11.4455L10.5543 11.3041ZM11.0855 10.7728L10.5543 11.3041L10.6957 11.4455L11.227 10.9142L11.0855 10.7728ZM11.9041 10.9666L11.1854 10.7479L11.1271 10.9392L11.8459 11.158L11.9041 10.9666Z" fill="#05141F" mask="url(#path-1-outside-1_105_2091)"/>
</svg>
