<svg width="24" height="24" viewBox="0 0 24 24" fill="none" xmlns="http://www.w3.org/2000/svg">
    <path fill-rule="evenodd" clip-rule="evenodd" d="M18.9515 17.6034C20.1881 16.0713 20.9284 14.122 20.9284 11.9999C20.9284 7.06875 16.931 3.07129 11.9999 3.07129C7.06875 3.07129 3.07129 7.06875 3.07129 11.9999C3.07129 14.123 3.81237 16.0731 5.04996 17.6056C6.81633 15.9157 9.28613 14.8778 12.0019 14.8778C14.7164 14.8778 17.1853 15.9148 18.9515 17.6034ZM17.5291 19.0108C16.1406 17.7034 14.1853 16.8778 12.0019 16.8778C9.81749 16.8778 7.86138 17.7041 6.47278 19.0125C7.99304 20.2124 9.91283 20.9284 11.9999 20.9284C14.0879 20.9284 16.0085 20.2117 17.5291 19.0108ZM11.9999 22.9284C18.0355 22.9284 22.9284 18.0355 22.9284 11.9999C22.9284 5.96418 18.0355 1.07129 11.9999 1.07129C5.96418 1.07129 1.07129 5.96418 1.07129 11.9999C1.07129 18.0355 5.96418 22.9284 11.9999 22.9284ZM12.0019 11.7626C13.4284 11.7626 14.5848 10.6062 14.5848 9.17963C14.5848 7.75311 13.4284 6.59668 12.0019 6.59668C10.5754 6.59668 9.41895 7.75311 9.41895 9.17963C9.41895 10.6062 10.5754 11.7626 12.0019 11.7626ZM12.0019 13.7626C14.533 13.7626 16.5848 11.7107 16.5848 9.17963C16.5848 6.64854 14.533 4.59668 12.0019 4.59668C9.4708 4.59668 7.41895 6.64854 7.41895 9.17963C7.41895 11.7107 9.4708 13.7626 12.0019 13.7626Z" fill="#05141F"/>
</svg>
